<svg width="22" height="75" viewBox="0 0 22 75" fill="none" xmlns="http://www.w3.org/2000/svg">
<path d="M17.5914 3.04782C18.2647 3.13261 18.7634 3.77099 18.6687 4.44429C18.6138 4.8383 18.539 5.22234 18.5091 5.62133C18.4642 6.14501 18.4143 6.67367 18.3694 7.19735C18.2497 9.81076 18.1549 12.4192 18.115 15.0326C18.0751 17.7657 18.0502 20.4938 17.9804 23.2169C17.9006 26.1794 17.8258 29.1369 17.726 32.0995C17.6412 34.5782 17.5764 37.057 17.4467 39.5307C17.3719 40.9621 17.3021 42.3885 17.2323 43.8249C17.1624 45.1116 17.0477 46.3934 16.958 47.6801C16.8782 48.8073 16.7585 49.9444 16.6487 51.0716C16.5939 51.6252 16.5041 52.1738 16.4393 52.7274C16.2996 53.7947 16.15 54.872 15.6812 55.8595C15.3869 56.473 14.7086 56.8121 14.0503 56.5428C13.4468 56.2984 13.0728 55.5253 13.362 54.9169C13.4468 54.7423 13.5266 54.5727 13.5915 54.3982C13.6613 54.1588 13.7162 53.9144 13.766 53.675C14.0852 51.8795 14.2299 50.0591 14.3994 48.2437C14.5391 46.7774 14.6288 45.3111 14.7186 43.8448C14.8633 40.997 14.9929 38.1542 15.1026 35.3114C15.1924 32.8476 15.2822 30.3838 15.347 27.9151C15.4268 24.8528 15.4967 21.7905 15.5465 18.7282C15.5914 16.03 15.6363 13.3319 15.7111 10.6337C15.741 9.50651 15.8059 8.38435 15.8558 7.25719C15.8807 6.70359 15.9455 6.14997 15.9904 5.59637C16.0353 5.10261 16.1101 4.61885 16.1799 4.13008C16.2198 3.85079 16.3495 3.60143 16.539 3.4119C16.8183 3.14258 17.1974 2.99296 17.5914 3.04782Z" fill="#1F4168"/>
<path d="M10.9581 1.85082C11.2623 1.54658 11.7262 1.40195 12.1651 1.52165C12.8284 1.69621 13.2124 2.3795 13.0578 3.03285C13.0528 3.08771 13.0379 3.14255 13.0329 3.19741C13.0329 3.16749 13.0379 3.14257 13.0379 3.11265C12.988 4.00041 13.0578 4.89813 13.0977 5.78589C13.1276 6.50408 13.1576 7.22227 13.1875 7.94046C13.2423 9.17235 13.2772 10.4042 13.3171 11.6311C13.4019 14.5587 13.4518 17.4814 13.4768 20.409C13.4917 21.8005 13.4518 23.1969 13.4369 24.5884C13.4219 25.8702 13.382 27.147 13.3471 28.4287C13.2773 30.9624 13.1825 33.5009 13.0628 36.0345C12.9182 39.0818 12.7636 42.1291 12.594 45.1814C12.4444 47.8347 12.2299 50.4831 12.0055 53.1314C11.9456 53.8296 11.8359 54.5278 11.7611 55.2211C11.6613 56.049 11.5067 56.8719 11.3571 57.6899C11.2374 58.3582 10.6589 58.8569 9.96062 58.7671C9.31226 58.6873 8.76365 58.039 8.88335 57.3707C9.05791 56.3981 9.2225 55.4156 9.3422 54.4281C9.4619 53.3907 9.57662 52.3583 9.6614 51.316C9.84095 49.2811 9.96062 47.2462 10.1003 45.2113C10.1003 45.2612 10.0953 45.3161 10.0903 45.371C10.3995 39.9945 10.6838 34.6131 10.8284 29.2317C10.8683 27.8651 10.9282 26.4986 10.9382 25.132C10.9531 23.6308 10.9681 22.1296 10.988 20.6334C10.998 19.2668 10.9481 17.9003 10.9431 16.5288C10.9332 15.1722 10.8833 13.8156 10.8434 12.4591C10.7985 10.9878 10.7536 9.51647 10.6938 8.05017C10.6638 7.26216 10.624 6.47416 10.594 5.68615C10.5741 5.18741 10.5541 4.69863 10.5342 4.19988C10.5092 3.60638 10.4993 2.99792 10.6389 2.41938C10.6938 2.18497 10.8085 2.00044 10.9581 1.85082Z" fill="#1F4168"/>
<path d="M6.80861 1.35211C7.14277 1.68626 7.18265 2.10519 7.19262 2.55406C7.19761 2.85829 7.20759 3.16751 7.22255 3.47175C7.4021 6.1849 7.62154 8.89805 7.81606 11.6062C7.90583 12.873 7.98063 14.1448 8.05544 15.4066C8.13025 16.7482 8.22502 18.0898 8.2699 19.4315C8.37464 22.2493 8.4694 25.0772 8.53923 27.9001C8.60406 30.718 8.60906 33.5458 8.62901 36.3687C8.64397 38.9671 8.65395 41.5706 8.61904 44.169C8.58412 47.0567 8.51927 49.9345 8.3098 52.8172C8.22502 53.9294 8.10534 55.0366 8.01556 56.1438C7.9607 56.8171 7.26746 57.3009 6.61909 57.2211C5.92086 57.1313 5.48694 56.4979 5.5418 55.8246C5.65152 54.4181 5.79616 53.0167 5.90089 51.6052C6.03056 48.9918 6.12531 46.3734 6.13529 43.7501C6.14027 41.002 6.15028 38.2589 6.13532 35.5109C6.12035 32.7828 6.11038 30.0497 6.03557 27.3216C5.96574 24.5685 5.91585 21.8154 5.76123 19.0674C5.62658 16.6884 5.49194 14.3094 5.34232 11.9354C5.34232 11.8855 5.33233 11.8356 5.33233 11.7858C5.33233 11.8257 5.33731 11.8606 5.33731 11.9005C5.21263 10.2097 5.08794 8.52898 4.97322 6.83825C4.92335 6.12006 4.85852 5.40685 4.80365 4.69365C4.77872 4.2797 4.73881 3.86075 4.72884 3.45178C4.71388 3.04781 4.71886 2.64383 4.69392 2.23985L4.69393 2.24983C4.68894 1.92564 4.80865 1.59648 5.05802 1.34711C5.52684 0.868323 6.32982 0.873315 6.80861 1.35211Z" fill="#1F4168"/>
<path d="M1.59676 58.9916C1.8611 59.0365 2.06555 59.1412 2.27004 59.2759C2.29498 59.2908 2.3249 59.3108 2.35483 59.3207L2.35982 59.3257C2.36481 59.3307 2.3748 59.3307 2.3748 59.3307C2.4945 59.3507 2.6092 59.3656 2.72391 59.4105C2.77378 59.4305 2.81866 59.4554 2.86853 59.4853C4.84354 59.8544 6.81858 60.1936 8.79359 60.5227C10.7636 60.8469 12.7536 61.0015 14.7386 61.1811C15.7909 61.2359 16.8482 61.2459 17.9006 61.191C18.3495 61.1611 18.7983 61.1312 19.2472 61.0913C19.5415 61.0664 19.8407 61.0265 20.135 61.0315C20.8132 61.0414 21.3818 61.59 21.3818 62.2783C21.3868 62.8618 20.9579 63.3805 20.3993 63.5002C20.3793 63.7296 20.2995 63.9591 20.1549 64.1635C20.13 64.1984 20.105 64.2334 20.0801 64.2683C20.0751 64.2733 20.0701 64.2783 20.0651 64.2932C19.7659 65.0214 19.4267 65.7395 19.0128 66.4128C18.4193 67.3654 17.6462 68.1884 16.7984 68.9165C16.0203 69.5849 15.2423 70.2432 14.4593 70.8966C14.4593 70.8966 14.4543 70.9015 14.4493 70.9065C14.4593 70.8965 14.4743 70.8816 14.4842 70.8716C14.4743 70.8816 14.4643 70.8916 14.4493 70.9065C14.4443 70.9115 14.4394 70.9165 14.4344 70.9215C14.0603 71.2457 13.6912 71.5748 13.3172 71.899C12.8683 72.298 12.4493 72.7269 12.0304 73.1558C11.6962 73.49 11.3721 73.874 10.998 74.1583C10.4444 74.5822 9.69131 74.9363 8.99307 74.6271C8.64395 74.4775 8.37464 74.288 8.1103 74.0137C7.95569 73.8491 7.81106 73.6546 7.68637 73.4601C7.52179 73.1957 7.3672 72.9214 7.2076 72.6521C6.89339 72.1185 6.56918 71.5948 6.24001 71.0761C4.71386 68.6622 3.18774 66.2583 1.73142 63.7945C1.52195 63.4454 1.33241 63.0863 1.1379 62.7321C1.02319 62.5277 0.908496 62.3232 0.798774 62.1137C0.524465 61.62 0.205265 61.0614 0.13544 60.4928C0.0855661 60.0838 0.210244 59.6499 0.499513 59.3606C0.788782 59.0813 1.20775 58.9317 1.59676 58.9916ZM16.2049 66.0288C16.4393 65.7446 16.6637 65.4503 16.8732 65.151C17.0527 64.8618 17.2123 64.5625 17.3619 64.2633C17.4467 64.0787 17.5265 63.8892 17.6113 63.7047C17.1325 63.7246 16.6537 63.7346 16.1799 63.7296C15.1226 63.7197 14.0852 63.6299 13.0379 63.5401C11.6613 63.4204 10.2948 63.2508 8.92327 63.0763C8.18015 62.9815 7.45197 62.8319 6.70884 62.7072C6.12532 62.6124 5.54678 62.4927 4.96325 62.388C4.54431 62.3182 4.12537 62.2384 3.70643 62.1686C4.02562 62.7172 4.34481 63.2658 4.66899 63.8094C5.20763 64.7171 5.75624 65.6248 6.3298 66.5176C6.97317 67.5201 7.61156 68.5275 8.24496 69.53C8.7437 70.328 9.22252 71.1459 9.72126 71.9539C9.97063 71.7145 10.21 71.4651 10.4494 71.2257C10.8733 70.7918 11.3023 70.3629 11.7511 69.9639C12.1501 69.6148 12.5491 69.2657 12.9531 68.9116C12.9431 68.9215 12.9331 68.9315 12.9282 68.9365C13.7062 68.2582 14.5142 67.5999 15.2972 66.9266C15.5116 66.7321 15.7211 66.5326 15.9256 66.3281C16.0203 66.2233 16.1151 66.1286 16.2049 66.0288Z" fill="#1F4168"/>
</svg>
