<svg width="196" height="174" viewBox="0 0 196 174" fill="none" xmlns="http://www.w3.org/2000/svg">
<path fill-rule="evenodd" clip-rule="evenodd" d="M168.61 111.979C168.615 112 168.62 112.021 168.624 112.041C168.69 112.363 168.82 112.672 168.979 112.988C169.78 114.375 171.504 115.157 173.109 114.734C174.925 114.262 175.978 112.55 175.83 110.714C175.843 110.706 175.841 110.694 175.835 110.681C175.833 110.677 175.83 110.672 175.827 110.667C175.88 110.301 175.943 109.952 176.024 109.594C175.996 109.754 175.958 109.895 175.93 110.056C176.228 108.73 176.618 107.415 177.045 106.123C178.018 103.277 179.197 100.5 180.498 97.7821C180.486 97.8079 180.475 97.8333 180.462 97.858C182.116 94.5258 183.946 91.3321 185.978 88.2381C187.018 86.6291 188.076 85.0097 189.134 83.3903C190.028 81.9856 190.873 80.5374 191.651 79.056C191.895 78.5951 192.132 78.1389 192.364 77.6789C192.48 77.4472 192.595 77.2146 192.709 76.98C192.784 76.8327 192.864 76.6851 192.944 76.5375C193.105 76.2421 193.265 75.9467 193.384 75.6538C193.481 75.4057 193.552 75.1965 193.613 74.9692C195.076 73.8845 195.547 71.7879 194.611 70.1671C194.06 69.2126 193.162 68.6981 192.181 68.3285C191.351 68.0149 190.558 67.6805 189.764 67.3462C188.825 66.9675 187.907 66.51 187.004 66.0602C186.824 65.9705 186.645 65.881 186.466 65.7926C185.444 65.2444 184.428 64.6815 183.413 64.1188C181.837 63.2452 180.261 62.3723 178.665 61.5558C178.113 61.2757 177.564 60.9866 177.017 60.6979C176.05 60.1883 175.085 59.6795 174.1 59.2212L173.057 58.7456C171.862 58.2011 170.657 57.6515 169.463 57.0958C168.44 56.6089 167.387 56.2046 166.332 55.7995C165.952 55.6537 165.573 55.5079 165.194 55.3582C163.866 54.8043 162.514 54.3358 161.163 53.8672C158.837 53.019 156.48 52.243 154.13 51.4697L153.07 51.1201C152.393 50.8625 151.726 50.623 151.026 50.4508C150.44 50.3089 149.834 50.2987 149.202 50.3273C146.796 50.4438 145.095 52.5304 145.622 54.9397C145.798 55.7024 146.008 56.3979 146.338 57.0956C146.561 57.5688 146.845 58.0066 147.134 58.4505C147.259 58.6439 147.385 58.8386 147.508 59.0378C148.324 60.3677 149.124 61.7544 149.832 63.1467C150.361 64.294 150.846 65.4664 151.296 66.6509C149.705 66.6921 148.111 66.7273 146.515 66.7184C145.081 66.7068 143.653 66.6854 142.225 66.664C140.795 66.6427 139.365 66.6213 137.928 66.6097L137.893 66.6094L137.883 66.6093C134.663 66.5799 131.443 66.5506 128.214 66.5033C126.056 66.4611 123.904 66.3136 121.75 66.1659C121.334 66.1374 120.918 66.1089 120.502 66.0811C117.867 65.8162 115.246 65.4984 112.623 64.9858C108.807 64.1856 105.092 63.0518 101.369 61.9156C100.813 61.7459 100.257 61.5762 99.6998 61.4075C95.8014 60.0724 91.983 58.5954 88.2669 56.7892C84.666 55.0022 81.1902 52.9747 77.8169 50.7921C75.0902 48.9806 72.4402 47.0527 69.9648 44.928C67.7119 42.939 65.6107 40.8384 63.6044 38.611C61.7477 36.4864 59.9834 34.2858 58.3772 31.9712C58.3365 31.9038 58.2933 31.8378 58.2431 31.7758C58.2304 31.7555 58.2179 31.7352 58.206 31.7144L58.1748 31.6604C56.2193 28.7312 54.4982 25.6668 52.831 22.5712C52.3464 21.6487 51.856 20.7296 51.3654 19.8106C50.3863 17.9762 49.4073 16.1418 48.4762 14.2797C47.8356 12.9206 47.231 11.5408 46.7164 10.109C46.4758 9.35946 46.2608 8.57107 46.0922 7.77996C45.9965 7.11486 45.9082 6.42146 45.8483 5.73562C45.8475 5.65896 45.8471 5.58187 45.847 5.50443L45.8467 5.3264C45.8454 4.34686 45.844 3.32138 45.4621 2.40477C45.0239 1.31305 44.123 0.584485 43.0123 0.241207C41.1035 -0.361634 39.0123 0.965734 38.51 2.84059C38.3578 3.40878 38.3448 3.9686 38.4606 4.50204C38.5196 6.72517 38.7025 8.99682 39.344 11.1477C40.0299 13.4172 40.9139 15.5722 41.9628 17.68C42.8633 19.4894 43.7999 21.2779 44.7545 23.056C45.0436 23.5918 45.3317 24.1293 45.6192 24.6674L46.1267 25.6182C47.034 27.319 47.9399 29.017 48.8639 30.6727C49.3837 31.5732 49.9113 32.4452 50.4672 33.3249C55.8447 41.8904 62.8971 49.4889 71.2257 55.2219C75.2489 57.9898 79.3823 60.574 83.733 62.7445C85.8943 63.826 88.0631 64.879 90.2879 65.7797C92.5801 66.7135 94.931 67.5414 97.2895 68.3408C98.8717 68.8842 100.473 69.3553 102.075 69.8264C102.386 69.918 102.698 70.0097 103.01 70.1019C103.34 70.1997 103.67 70.298 104 70.3976C107.872 71.5721 111.838 72.4521 115.856 72.9656C120.832 73.5985 125.858 73.8186 130.875 73.8995C132.559 73.9233 134.243 73.9391 135.927 73.9547C138.262 73.9765 140.599 73.9982 142.939 74.0418C146.331 74.1048 149.694 74.031 153.065 73.9569C153.209 73.9538 153.352 73.9507 153.495 73.9475C153.757 74.9777 154.01 76.0098 154.263 77.0405C154.462 77.8534 154.662 78.6655 154.865 79.4751C155.153 80.6101 155.45 81.7403 155.762 82.8647C154.91 83.2593 154.029 83.6025 153.146 83.9013C150.815 84.6468 148.437 85.2275 146.035 85.7257C145.538 85.811 145.043 85.8955 144.549 85.9798C143.217 86.207 141.894 86.4329 140.576 86.6683C140.12 86.7433 139.665 86.8291 139.209 86.9151L139.205 86.9156C138.324 87.0817 137.441 87.2482 136.545 87.3388C134.6 87.5487 132.654 87.747 130.709 87.9454C128.765 88.1436 126.821 88.3418 124.879 88.5515C120.927 88.6956 116.987 88.8575 113.028 89.0298C110.585 89.1247 108.148 89.1252 105.7 89.1256L105.69 89.1259C105.058 89.1259 104.426 89.126 103.792 89.1277C103.179 89.1299 102.567 89.1332 101.955 89.1366L101.906 89.137L101.856 89.1373C98.8653 89.1537 95.8862 89.1701 92.9066 89.073C91.0959 89.018 89.2836 88.9604 87.4701 88.9028L87.4073 88.9007C84.4927 88.8081 81.5745 88.7155 78.6535 88.6334C75.4636 88.5489 72.275 88.401 69.0877 88.2531L69.0818 88.2528L69.0677 88.2521L69.0363 88.2509C67.8302 88.1948 66.6243 88.1388 65.4187 88.0862L54.9931 87.622C53.5804 87.5545 52.1675 87.4841 50.7544 87.4124C49.7745 87.3627 48.7946 87.3124 47.8147 87.2622L47.788 87.2609C42.2363 86.976 36.683 86.6912 31.1314 86.5107C30.5696 86.4935 30.0081 86.4743 29.4467 86.4539C28.5005 86.4195 27.5547 86.3817 26.609 86.3438L26.6055 86.3437C24.0115 86.24 21.4183 86.1363 18.818 86.1038C16.4501 86.0783 14.0537 86.0451 11.6573 86.0119C11.1319 86.0066 10.6032 86.0032 10.0726 85.9998C8.4566 85.9894 6.82339 85.9789 5.21343 85.9142L5.16056 85.9102C5.10523 85.9052 5.04868 85.8981 4.99143 85.8899C4.90985 85.878 4.82679 85.8636 4.74361 85.8493C3.76257 85.6473 2.81628 85.7134 1.95175 86.2125C1.12339 86.6908 0.492465 87.5113 0.24123 88.4488C-0.00988685 89.3861 0.175475 90.4558 0.682078 91.2919C1.14999 92.1023 1.92412 92.7359 2.87674 92.9303C4.45162 93.2457 6.03815 93.2902 7.63226 93.3063L8.23204 93.3138C16.0119 93.4096 23.7658 93.5051 31.5356 93.8653L31.6585 93.8709C40.3531 94.2764 49.0478 94.6819 57.7606 95.0769C59.1302 95.1391 60.5005 95.2024 61.8715 95.2659C67.7574 95.5384 73.6558 95.8113 79.5606 95.9859C84.4976 96.1258 89.4448 96.2835 94.3923 96.4413L94.4483 96.4433C97.3035 96.537 100.175 96.5118 103.037 96.4867C103.775 96.4803 104.512 96.4738 105.248 96.4694C105.67 96.4669 106.093 96.465 106.515 96.4643C106.977 96.4639 107.443 96.4692 107.91 96.4746C108.874 96.4858 109.845 96.4971 110.81 96.4581C112.267 96.4024 113.732 96.3418 115.195 96.283C115.878 96.2556 116.561 96.2285 117.242 96.2024C118.482 96.1465 119.72 96.0978 120.959 96.0491C122.198 96.0004 123.436 95.9517 124.677 95.8959C125.704 95.8543 126.728 95.7409 127.744 95.6283C127.971 95.6032 128.197 95.5781 128.422 95.5539C128.595 95.5354 128.767 95.5175 128.939 95.5003C130.278 95.3639 131.616 95.223 132.953 95.0821C133.792 94.9937 134.631 94.9053 135.471 94.818C135.966 94.7666 136.461 94.7155 136.957 94.665C138.165 94.5627 139.367 94.3415 140.569 94.1202L140.866 94.0655C141.067 94.0286 141.269 93.992 141.47 93.9562C142.169 93.8355 142.87 93.7224 143.571 93.6091C145.192 93.3473 146.816 93.085 148.421 92.7285C151.282 92.1096 154.157 91.4338 156.879 90.3667C157.251 90.2242 157.634 90.0762 158.02 89.9182C158.217 90.4444 158.421 90.9688 158.633 91.4913C159.041 92.491 159.47 93.4792 159.915 94.4586C159.76 94.5355 159.604 94.612 159.449 94.6883C158.988 94.9147 158.529 95.1392 158.07 95.3632L158.056 95.3701C157.344 95.7175 156.635 96.064 155.928 96.4144C153.385 97.6664 150.832 98.9005 148.279 100.134C147.333 100.594 146.386 101.053 145.44 101.512C141.659 103.345 137.878 105.179 134.123 107.059C126.86 110.7 119.628 114.395 112.483 118.28C108.811 120.28 105.121 122.29 101.493 124.409C100.854 124.778 100.213 125.154 99.5716 125.53C98.9304 125.906 98.2891 126.283 97.6497 126.652C97.563 126.702 97.4757 126.751 97.3883 126.8C97.2874 126.856 97.1864 126.911 97.0855 126.967C96.7106 127.173 96.3386 127.377 95.9929 127.608C94.2543 128.756 92.5338 129.894 90.7952 131.041C90.3158 131.355 89.832 131.664 89.3474 131.973C88.2282 132.688 87.1055 133.405 86.027 134.179C84.1527 135.549 82.268 136.901 80.3937 138.271C80.0136 138.547 79.6301 138.82 79.2461 139.094C78.3131 139.759 77.3768 140.426 76.4754 141.134C74.4655 142.727 72.4374 144.33 70.4094 145.933C68.1173 147.744 65.9169 149.663 63.7132 151.585C63.0948 152.124 62.4761 152.664 61.855 153.201C58.6225 156.004 55.7866 159.202 53.2042 162.59C52.2869 163.784 51.4155 165.009 50.542 166.238L50.5356 166.246C50.3628 166.489 50.1899 166.732 50.0166 166.975L49.7535 167.344C48.8692 168.598 48.7783 170.188 49.4597 171.451C49.6988 171.865 50.01 172.238 50.4188 172.53C51.9793 173.694 54.4158 173.464 55.5744 171.811C57.4123 169.213 59.2965 166.612 61.3568 164.15C62.9864 162.273 64.7637 160.526 66.59 158.824C68.6277 157.071 70.6472 155.329 72.6745 153.558C74.0068 152.394 75.4179 151.309 76.8256 150.226C77.4753 149.727 78.1259 149.226 78.7662 148.72C81.7019 146.399 84.7384 144.203 87.7796 142.003C88.2034 141.697 88.6274 141.39 89.0512 141.083C89.5482 140.723 90.0449 140.363 90.541 140.001C93.2959 138.206 96.0255 136.404 98.7688 134.593L98.7809 134.585L99.2442 134.28C100.24 133.632 101.272 133.046 102.295 132.464L102.298 132.463C102.637 132.27 102.976 132.077 103.312 131.883C105.246 130.742 107.181 129.601 109.108 128.489C110.384 127.734 111.694 127.041 113.005 126.347C113.442 126.116 113.878 125.885 114.313 125.652C114.72 125.428 115.127 125.204 115.533 124.98L115.54 124.976L115.547 124.972C116.774 124.295 117.999 123.62 119.231 122.981C120.64 122.25 122.045 121.504 123.45 120.758C125.693 119.568 127.937 118.377 130.206 117.244C132.08 116.311 133.951 115.373 135.824 114.433L137.948 113.369C139.005 112.839 140.063 112.31 141.124 111.781L153.779 105.627C155.962 104.583 158.134 103.521 160.307 102.459C160.771 102.228 161.237 101.993 161.704 101.756L161.718 101.749C162.194 101.508 162.672 101.266 163.151 101.027C163.794 102.26 164.447 103.488 165.1 104.716C165.659 105.768 166.218 106.82 166.771 107.876C167.399 109.17 168.055 110.472 168.574 111.829C168.583 111.874 168.598 111.928 168.61 111.979ZM168.901 96.1547C169.663 97.6293 170.43 99.1095 171.225 100.574C171.855 98.9616 172.534 97.3929 173.27 95.8394C175.242 91.603 177.6 87.5764 180.169 83.6675C180.46 83.2236 180.754 82.7806 181.048 82.337C181.93 81.0073 182.816 79.6722 183.62 78.2895C184.239 77.2456 184.798 76.1782 185.358 75.1087C185.602 74.6441 185.845 74.1791 186.094 73.7156L185.872 73.6149C185.611 73.4972 185.339 73.3745 185.078 73.2455C183.256 72.3765 181.485 71.4301 179.693 70.4476C176.823 68.8869 173.935 67.3366 171.003 65.8356L170.72 65.7056C168.594 64.7278 166.49 63.7602 164.322 62.8732C161.859 61.8937 159.42 60.9967 156.935 60.1024C156.783 60.0462 156.63 59.9902 156.46 59.9445C157.15 61.3472 157.721 62.7943 158.274 64.2518C159.28 66.9273 159.976 69.7042 160.674 72.4893C160.753 72.8055 160.833 73.1219 160.913 73.4382L161.125 74.2846C162.031 77.9019 162.935 81.5091 164.116 85.0596C165.057 87.7953 166.156 90.4391 167.36 93.0532C167.913 93.4357 168.366 93.9741 168.642 94.6451C168.84 95.131 168.922 95.6462 168.901 96.1547ZM58.3772 31.9712C58.3995 32.008 58.4209 32.0451 58.4423 32.0822C58.4181 32.0403 58.392 31.9996 58.3652 31.9592L58.3267 31.9022C58.3024 31.8662 58.278 31.8303 58.2545 31.7937L58.3772 31.9712ZM177.035 106.151C177.015 106.211 176.994 106.271 176.974 106.331C176.997 106.27 177.016 106.211 177.035 106.151Z" fill="#1F4168" fill-opacity="0.61"/>
</svg>
