<svg width="181" height="181" viewBox="0 0 181 181" fill="none" xmlns="http://www.w3.org/2000/svg">
<circle cx="129.781" cy="88.5983" r="4" transform="rotate(90 129.781 88.5983)" fill="#E9D5BC"/>
<circle cx="119.622" cy="116.933" r="4" transform="rotate(135 119.622 116.933)" fill="#E9D5BC"/>
<circle cx="92.4024" cy="129.783" r="4" transform="rotate(-180 92.4024 129.783)" fill="#E9D5BC"/>
<circle cx="64.066" cy="119.622" r="4" transform="rotate(-135 64.066 119.622)" fill="#E9D5BC"/>
<circle cx="51.2168" cy="92.4027" r="4" transform="rotate(-90 51.2168 92.4027)" fill="#E9D5BC"/>
<circle cx="61.3763" cy="64.0684" r="4" transform="rotate(-45 61.3763 64.0684)" fill="#E9D5BC"/>
<circle cx="88.5986" cy="51.2178" r="4" fill="#E9D5BC"/>
<circle cx="116.932" cy="61.3786" r="4" transform="rotate(45 116.932 61.3786)" fill="#E9D5BC"/>
<circle cx="133.627" cy="44.6845" r="3.5" transform="rotate(45 133.627 44.6845)" stroke="#E9D5BC"/>
<circle cx="147.878" cy="64.6747" r="3.5" transform="rotate(67.5 147.878 64.6747)" stroke="#E9D5BC"/>
<circle cx="153.393" cy="88.5975" r="3.5" transform="rotate(90 153.393 88.5975)" stroke="#E9D5BC"/>
<circle cx="149.336" cy="112.81" r="3.5" transform="rotate(112.5 149.336 112.81)" stroke="#E9D5BC"/>
<circle cx="136.32" cy="133.626" r="3.5" transform="rotate(135 136.32 133.626)" stroke="#E9D5BC"/>
<circle cx="116.327" cy="147.875" r="3.5" transform="rotate(157.5 116.327 147.875)" stroke="#E9D5BC"/>
<circle cx="92.4041" cy="153.391" r="3.5" transform="rotate(180 92.4041 153.391)" stroke="#E9D5BC"/>
<circle cx="68.1935" cy="149.332" r="3.5" transform="rotate(-157.5 68.1935 149.332)" stroke="#E9D5BC"/>
<circle cx="47.3772" cy="136.315" r="3.5" transform="rotate(-135 47.3772 136.315)" stroke="#E9D5BC"/>
<circle cx="33.1269" cy="116.325" r="3.5" transform="rotate(-112.5 33.1269 116.325)" stroke="#E9D5BC"/>
<circle cx="27.611" cy="92.4019" r="3.5" transform="rotate(-90 27.611 92.4019)" stroke="#E9D5BC"/>
<circle cx="31.6706" cy="68.1893" r="3.5" transform="rotate(-67.5 31.6706 68.1893)" stroke="#E9D5BC"/>
<circle cx="44.6874" cy="47.3737" r="3.5" transform="rotate(-45 44.6874 47.3737)" stroke="#E9D5BC"/>
<circle cx="64.6776" cy="33.124" r="3.5" transform="rotate(-22.5 64.6776 33.124)" stroke="#E9D5BC"/>
<circle cx="88.6003" cy="27.6082" r="3.5" stroke="#E9D5BC"/>
<circle cx="112.811" cy="31.6683" r="3.5" transform="rotate(22.5 112.811 31.6683)" stroke="#E9D5BC"/>
<circle cx="132.104" cy="14.638" r="4" transform="rotate(30 132.104 14.638)" fill="#E9D5BC"/>
<circle cx="150.32" cy="27.9901" r="4" transform="rotate(45 150.32 27.9901)" fill="#E9D5BC"/>
<circle cx="164.46" cy="45.6025" r="4" transform="rotate(60 164.46 45.6025)" fill="#E9D5BC"/>
<circle cx="173.561" cy="66.275" r="4" transform="rotate(75 173.561 66.275)" fill="#E9D5BC"/>
<circle cx="177" cy="88.5976" r="4" transform="rotate(90 177 88.5976)" fill="#E9D5BC"/>
<circle cx="174.544" cy="111.05" r="4" transform="rotate(105 174.544 111.05)" fill="#E9D5BC"/>
<circle cx="166.363" cy="132.103" r="4" transform="rotate(120 166.363 132.103)" fill="#E9D5BC"/>
<circle cx="153.009" cy="150.32" r="4" transform="rotate(135 153.009 150.32)" fill="#E9D5BC"/>
<circle cx="135.399" cy="164.46" r="4" transform="rotate(150 135.399 164.46)" fill="#E9D5BC"/>
<circle cx="114.725" cy="173.56" r="4" transform="rotate(165 114.725 173.56)" fill="#E9D5BC"/>
<circle cx="92.4033" cy="177" r="4" transform="rotate(180 92.4033 177)" fill="#E9D5BC"/>
<circle cx="69.9491" cy="174.545" r="4" transform="rotate(-165 69.9491 174.545)" fill="#E9D5BC"/>
<circle cx="48.8963" cy="166.362" r="4" transform="rotate(-150 48.8963 166.362)" fill="#E9D5BC"/>
<circle cx="30.6805" cy="153.01" r="4" transform="rotate(-135 30.6805 153.01)" fill="#E9D5BC"/>
<circle cx="16.5405" cy="135.398" r="4" transform="rotate(-120 16.5405 135.398)" fill="#E9D5BC"/>
<circle cx="7.43973" cy="114.725" r="4" transform="rotate(-105 7.43973 114.725)" fill="#E9D5BC"/>
<circle cx="4" cy="92.402" r="4" transform="rotate(-90 4 92.402)" fill="#E9D5BC"/>
<circle cx="6.45601" cy="69.9498" r="4" transform="rotate(-75 6.45601 69.9498)" fill="#E9D5BC"/>
<circle cx="14.6373" cy="48.8977" r="4" transform="rotate(-60 14.6373 48.8977)" fill="#E9D5BC"/>
<circle cx="27.9908" cy="30.6799" r="4" transform="rotate(-45 27.9908 30.6799)" fill="#E9D5BC"/>
<circle cx="45.6038" cy="16.5398" r="4" transform="rotate(-30 45.6038 16.5398)" fill="#E9D5BC"/>
<circle cx="66.273" cy="7.43975" r="4" transform="rotate(-15 66.273 7.43975)" fill="#E9D5BC"/>
<circle cx="88.5969" cy="4" r="4" fill="#E9D5BC"/>
<circle cx="111.051" cy="6.45537" r="4" transform="rotate(15 111.051 6.45537)" fill="#E9D5BC"/>
</svg>
