<svg width="70" height="70" viewBox="0 0 70 70" fill="none" xmlns="http://www.w3.org/2000/svg">
<rect x="0.338593" y="0.798523" width="68.8514" height="68.8514" rx="34.4257" fill="#DDFDE1"/>
<g clip-path="url(#clip0_2_690)">
<path d="M50.579 34.7285C50.579 39.0536 48.8609 43.2015 45.8026 46.2598C42.7444 49.318 38.5965 51.0361 34.2714 51.0361C29.9464 51.0361 25.7985 49.318 22.7402 46.2598C19.682 43.2015 17.9638 39.0536 17.9638 34.7285C17.9638 30.4035 19.682 26.2556 22.7402 23.1973C25.7985 20.1391 29.9464 18.421 34.2714 18.421C38.5965 18.421 42.7444 20.1391 45.8026 23.1973C48.8609 26.2556 50.579 30.4035 50.579 34.7285ZM42.4864 28.552C42.3408 28.4069 42.1674 28.2927 41.9766 28.2161C41.7858 28.1396 41.5816 28.1023 41.3761 28.1065C41.1706 28.1107 40.968 28.1562 40.7805 28.2405C40.593 28.3248 40.4244 28.446 40.2848 28.5969L33.2053 37.617L28.9388 33.3485C28.649 33.0785 28.2657 32.9314 27.8696 32.9384C27.4736 32.9454 27.0957 33.1059 26.8156 33.386C26.5354 33.6661 26.375 34.044 26.368 34.4401C26.361 34.8361 26.508 35.2195 26.7781 35.5093L32.1718 40.905C32.3171 41.0501 32.4902 41.1644 32.6806 41.2411C32.871 41.3178 33.075 41.3554 33.2802 41.3516C33.4855 41.3478 33.6879 41.3027 33.8753 41.2189C34.0628 41.1352 34.2315 41.0146 34.3713 40.8643L42.5088 30.6924C42.7862 30.404 42.9395 30.0183 42.9357 29.6181C42.9318 29.2179 42.7713 28.8352 42.4884 28.552H42.4864Z" fill="#4CA258"/>
</g>
<defs>
<clipPath id="clip0_2_690">
<rect width="32.6152" height="32.6152" fill="white" transform="translate(17.9646 18.4209)"/>
</clipPath>
</defs>
</svg>
