<svg width="70" height="70" viewBox="0 0 70 70" fill="none" xmlns="http://www.w3.org/2000/svg">
<rect x="0.338593" y="0.338585" width="68.8514" height="68.8514" rx="34.4257" fill="#E6F2FF"/>
<path d="M31.7941 34.8582C35.0225 34.8582 37.4579 32.4227 37.4579 29.1943C37.4579 25.9659 35.0225 23.5305 31.7941 23.5305C28.5657 23.5305 26.1302 25.9659 26.1302 29.1943C26.1302 32.4227 28.5657 34.8582 31.7941 34.8582ZM33.4123 36.3923H30.1758C25.7143 36.3923 22.0846 40.022 22.0846 44.4835V46.1017H41.5035V44.4835C41.5035 40.022 37.8738 36.3923 33.4123 36.3923ZM51.6887 28.7736L44.7303 35.7191L42.6395 33.6283L40.3513 35.9165L44.7303 40.2922L53.9737 31.065L51.6887 28.7736Z" fill="#3A70B0"/>
</svg>
