<svg width="69" height="71" viewBox="0 0 69 71" fill="none" xmlns="http://www.w3.org/2000/svg">
<rect x="0.615173" y="0.535034" width="68.288" height="70.3265" rx="34.144" fill="#FFEDD1"/>
<path fill-rule="evenodd" clip-rule="evenodd" d="M34.7921 20.168C30.8946 20.168 27.343 21.4554 25.242 22.5073C25.0521 22.6022 24.8753 22.6954 24.7104 22.7851C24.3843 22.9628 24.1064 23.1285 23.8855 23.2743L26.2757 26.7931L27.4009 27.2409C31.798 29.4593 37.6948 29.4593 42.0928 27.2409L43.3699 26.5782L45.6306 23.2743C45.1622 22.9689 44.6752 22.6931 44.1723 22.4486C42.0825 21.408 38.6164 20.168 34.7921 20.168ZM29.2327 24.151C28.3863 23.9926 27.5504 23.7829 26.7295 23.5228C28.6977 22.6488 31.6315 21.7212 34.7913 21.7212C36.9804 21.7212 39.0504 22.1664 40.7623 22.7307C38.7561 23.0129 36.6154 23.4918 34.5756 24.0811C32.9706 24.5453 31.0948 24.4953 29.2327 24.151ZM43.004 28.5206L42.7926 28.6275C37.9545 31.0677 31.5383 31.0677 26.7002 28.6275L26.5 28.5257C19.233 36.4995 13.6848 51.2285 34.7921 51.2285C55.8978 51.2285 50.2141 36.2242 43.004 28.5206ZM33.8948 35.6996C33.4371 35.6996 32.9981 35.8814 32.6745 36.205C32.3509 36.5287 32.169 36.9676 32.169 37.4253C32.169 37.883 32.3509 38.3219 32.6745 38.6456C32.9981 38.9692 33.4371 39.151 33.8948 39.151V35.6996ZM35.6205 33.9739V33.111H33.8948V33.9739C32.9794 33.9739 32.1015 34.3375 31.4542 34.9848C30.8069 35.632 30.4433 36.5099 30.4433 37.4253C30.4433 38.3407 30.8069 39.2186 31.4542 39.8659C32.1015 40.5131 32.9794 40.8768 33.8948 40.8768V44.3282C33.5379 44.3283 33.1897 44.2177 32.8983 44.0118C32.6068 43.8058 32.3864 43.5145 32.2674 43.178C32.1912 42.9622 32.0324 42.7855 31.8259 42.6868C31.6194 42.5881 31.3822 42.5755 31.1664 42.6517C30.9506 42.7279 30.7739 42.8867 30.6752 43.0932C30.5765 43.2996 30.5638 43.5369 30.64 43.7527C30.8781 44.4257 31.3188 45.0084 31.9017 45.4205C32.4846 45.8326 33.1809 46.0539 33.8948 46.0539V46.9168H35.6205V46.0539C36.5359 46.0539 37.4138 45.6903 38.061 45.043C38.7083 44.3958 39.072 43.5179 39.072 42.6025C39.072 41.6871 38.7083 40.8092 38.061 40.1619C37.4138 39.5147 36.5359 39.151 35.6205 39.151V35.6996C36.3712 35.6996 37.0106 36.1785 37.2487 36.8498C37.2841 36.9596 37.3411 37.0612 37.4163 37.1487C37.4916 37.2361 37.5837 37.3075 37.6871 37.3587C37.7905 37.4099 37.9031 37.4399 38.0182 37.4468C38.1334 37.4538 38.2488 37.4375 38.3576 37.3991C38.4664 37.3607 38.5663 37.3008 38.6516 37.2231C38.7368 37.1453 38.8056 37.0513 38.8539 36.9465C38.9021 36.8417 38.9289 36.7283 38.9326 36.613C38.9362 36.4976 38.9167 36.3828 38.8752 36.2751C38.6372 35.6021 38.1964 35.0194 37.6135 34.6073C37.0307 34.1952 36.3344 33.9739 35.6205 33.9739ZM35.6205 40.8768V44.3282C36.0782 44.3282 36.5171 44.1464 36.8408 43.8228C37.1644 43.4991 37.3462 43.0602 37.3462 42.6025C37.3462 42.1448 37.1644 41.7059 36.8408 41.3822C36.5171 41.0586 36.0782 40.8768 35.6205 40.8768Z" fill="#F9A21B"/>
</svg>
