<svg width="49" height="49" viewBox="0 0 49 49" fill="none" xmlns="http://www.w3.org/2000/svg">
<path fill-rule="evenodd" clip-rule="evenodd" d="M24.5 49C10.9683 49 0 38.0317 0 24.5C0 10.9683 10.9683 0 24.5 0C38.0317 0 49 10.9683 49 24.5C49 38.0317 38.0317 49 24.5 49ZM35.5082 21.4681C35.989 18.2586 33.5436 16.5329 30.2024 15.3814L31.2865 11.0327L28.6405 10.3742L27.5839 14.6081C26.8888 14.4336 26.1752 14.2712 25.4632 14.1089L26.5274 9.84747L23.8814 9.1875L22.7972 13.5347C22.2215 13.403 21.6549 13.2744 21.1068 13.1366L21.1098 13.1228L17.4593 12.2117L16.7549 15.0384C16.7549 15.0384 18.7195 15.4886 18.6782 15.5162C19.7501 15.7841 19.943 16.4931 19.9108 17.0566L18.6767 22.0102C18.7502 22.0286 18.8451 22.0561 18.9523 22.0975L18.6721 22.0286L16.9417 28.9682C16.8101 29.2928 16.4778 29.7813 15.7275 29.596C15.755 29.6343 13.8042 29.1167 13.8042 29.1167L12.4904 32.1455L15.9357 33.0046C16.5758 33.1653 17.2036 33.3338 17.8207 33.4915L16.7258 37.8892L19.3703 38.5477L20.4544 34.1989C21.1772 34.3934 21.8785 34.5741 22.5645 34.7456L21.4834 39.076L24.1294 39.7344L25.2243 35.3458C29.7384 36.2003 33.1317 35.8558 34.5603 31.7734C35.7118 28.4874 34.5037 26.5902 32.1287 25.3544C33.859 24.9563 35.1606 23.8186 35.5082 21.4681ZM29.4597 29.9482C28.6436 33.2358 23.1081 31.458 21.3135 31.0124L22.7682 25.186C24.5628 25.6347 30.3157 26.5213 29.4597 29.9482ZM30.2789 21.4207C29.5332 24.4112 24.9272 22.8907 23.4342 22.5186L24.7511 17.2358C26.2441 17.6078 31.0568 18.3015 30.2789 21.4207Z" fill="#545454"/>
</svg>
